<svg xmlns:mydata="http://www.w3.org/2000/svg" mydata:contrastcolor="11111f" mydata:template="Contrast" mydata:presentation="2.5" mydata:layouttype="undefined" mydata:specialfontid="undefined" mydata:id1="225" mydata:id2="224" mydata:companyname="WP" mydata:companytagline="web developer" version="1.1" xmlns="http://www.w3.org/2000/svg" xmlns:xlink="http://www.w3.org/1999/xlink" viewBox="0 0 550 470" class="svg-primary-tile"><g fill="#62b5e5" fill-rule="nonzero" stroke="none" stroke-width="1" stroke-linecap="butt" stroke-linejoin="miter" stroke-miterlimit="10" stroke-dasharray="" stroke-dashoffset="0" font-family="none" font-weight="none" font-size="none" text-anchor="none" style="mix-blend-mode: normal"><g data-paper-data="{&quot;isGlobalGroup&quot;:true,&quot;bounds&quot;:{&quot;x&quot;:156.5688766159291,&quot;y&quot;:115,&quot;width&quot;:236.86224676814177,&quot;height&quot;:240}}"><g data-paper-data="{&quot;isSecondaryText&quot;:true}"><path d="M182.52677,294.59264h-1.46698l-1.93911,10.21828l-2.29321,-10.21828h-1.70305l-2.24262,10.21828l-1.87166,-10.21828h-1.56815l2.36066,11.61781h2.00656l2.15832,-9.72928l2.14145,9.72928h2.05714z" data-paper-data="{&quot;glyphName&quot;:&quot;W&quot;,&quot;glyphIndex&quot;:0,&quot;firstGlyphOfWord&quot;:true,&quot;word&quot;:1}"></path><path d="M194.43685,294.59264h-6.28947v11.61781h6.42436v-1.2815h-4.82249v-3.97939h3.91195v-1.2815h-3.91195v-3.79391h4.50211z" data-paper-data="{&quot;glyphName&quot;:&quot;E&quot;,&quot;glyphIndex&quot;:1,&quot;word&quot;:1}"></path><path d="M205.80735,300.07274c1.12974,-0.23607 2.17518,-1.11288 2.17518,-2.54614c0,-2.02342 -1.68618,-2.93396 -4.5527,-2.93396h-2.74848v11.61781h3.20375c2.69789,0 4.60328,-0.84309 4.60328,-3.30492c0,-1.97284 -1.33209,-2.59672 -2.68103,-2.83279zM203.59845,295.85728c1.71991,0 2.74848,0.3541 2.74848,1.78736c0,1.23091 -1.01171,1.87166 -2.31007,1.87166h-1.75363v-3.65902zM203.8851,304.92895h-1.60187v-4.18174h1.90539c1.39953,0 2.61359,0.52272 2.61359,2.15832c0,1.68618 -1.23091,2.02342 -2.9171,2.02342z" data-paper-data="{&quot;glyphName&quot;:&quot;B&quot;,&quot;glyphIndex&quot;:2,&quot;lastGlyphOfWord&quot;:true,&quot;word&quot;:1}"></path><path d="M224.85561,294.59264h-2.42811v11.61781h2.7822c2.51241,0 5.46324,-1.12974 5.46324,-5.86792c0,-4.82249 -2.84965,-5.74989 -5.81734,-5.74989zM225.20971,295.87414c1.8548,0 3.76019,0.53958 3.76019,4.46839c0,3.82764 -1.82108,4.60328 -3.64216,4.60328h-1.29836v-9.07167z" data-paper-data="{&quot;glyphName&quot;:&quot;D&quot;,&quot;glyphIndex&quot;:3,&quot;firstGlyphOfWord&quot;:true,&quot;word&quot;:2}"></path><path d="M243.08888,294.59264h-6.28947v11.61781h6.42436v-1.2815h-4.82249v-3.97939h3.91195v-1.2815h-3.91195v-3.79391h4.50211z" data-paper-data="{&quot;glyphName&quot;:&quot;E&quot;,&quot;glyphIndex&quot;:4,&quot;word&quot;:2}"></path><path d="M256.92121,294.59264h-1.61874l-2.9171,9.88104l-2.9171,-9.88104h-1.71991l3.74333,11.61781h1.71991z" data-paper-data="{&quot;glyphName&quot;:&quot;V&quot;,&quot;glyphIndex&quot;:5,&quot;word&quot;:2}"></path><path d="M268.51092,294.59264h-6.28947v11.61781h6.42436v-1.2815h-4.82249v-3.97939h3.91195v-1.2815h-3.91195v-3.79391h4.50211z" data-paper-data="{&quot;glyphName&quot;:&quot;E&quot;,&quot;glyphIndex&quot;:6,&quot;word&quot;:2}"></path><path d="M276.3573,294.59264h-1.60187v11.61781h6.1883l0.18548,-1.39953h-4.7719z" data-paper-data="{&quot;glyphName&quot;:&quot;L&quot;,&quot;glyphIndex&quot;:7,&quot;word&quot;:2}"></path><path d="M290.6449,294.3903c-2.90024,0 -4.9068,2.2089 -4.9068,6.03654c0,3.89509 2.00656,5.98595 4.9068,5.98595c2.9171,0 4.9068,-2.15832 4.9068,-6.00282c0,-3.91195 -1.9897,-6.01968 -4.9068,-6.01968zM290.6449,295.70552c1.9897,0 3.20375,1.36581 3.20375,4.70445c0,3.37237 -1.24778,4.68759 -3.20375,4.68759c-1.88853,0 -3.20375,-1.31522 -3.20375,-4.67073c0,-3.35551 1.26464,-4.72132 3.20375,-4.72132z" data-paper-data="{&quot;glyphName&quot;:&quot;O&quot;,&quot;glyphIndex&quot;:8,&quot;word&quot;:2}"></path><path d="M304.73016,294.59264h-3.05199v11.61781h1.60187v-4.26605h1.46698c2.563,0 4.50211,-1.09602 4.50211,-3.76019c0,-2.44497 -1.71991,-3.59157 -4.51897,-3.59157zM304.67957,300.67976h-1.39953v-4.83935h1.43326c1.71991,0 2.83279,0.62389 2.83279,2.36066c0,1.97284 -1.14661,2.47869 -2.86651,2.47869z" data-paper-data="{&quot;glyphName&quot;:&quot;P&quot;,&quot;glyphIndex&quot;:9,&quot;word&quot;:2}"></path><path d="M321.27724,294.59264h-6.28947v11.61781h6.42436v-1.2815h-4.82249v-3.97939h3.91195v-1.2815h-3.91195v-3.79391h4.50211z" data-paper-data="{&quot;glyphName&quot;:&quot;E&quot;,&quot;glyphIndex&quot;:10,&quot;word&quot;:2}"></path><path d="M333.71004,306.21045h1.90539l-3.1363,-5.21031c1.66932,-0.50586 2.51241,-1.48384 2.51241,-3.11944c0,-2.17518 -1.51757,-3.28806 -4.4178,-3.28806h-3.05199v11.61781h1.60187v-4.92366h1.80422zM329.12362,300.05588v-4.21546h1.43326c1.90539,0 2.73162,0.59016 2.73162,2.04028c0,1.56815 -0.9274,2.17518 -2.54614,2.17518z" data-paper-data="{&quot;glyphName&quot;:&quot;R&quot;,&quot;glyphIndex&quot;:11,&quot;lastGlyphOfWord&quot;:true,&quot;word&quot;:2}"></path></g><g data-paper-data="{&quot;isPrimaryText&quot;:true}"><path d="M295.3181,163.58721h-35.24041l-7.58538,84.38734l-7.11129,-84.38734h-38.08492l-9.48172,84.38734l-4.58283,-84.38734h-36.66267l13.90653,110.30405h46.46045l8.84961,-76.32788l7.42735,76.32788h47.56665z" data-paper-data="{&quot;glyphName&quot;:&quot;W&quot;,&quot;glyphIndex&quot;:0,&quot;firstGlyphOfWord&quot;:true,&quot;word&quot;:1}" fill="#ffffff"></path><path d="M341.30446,163.58721h-42.19367v110.30405h36.50464v-33.028h10.11384c26.54883,0 44.5641,-13.59047 44.5641,-39.50718c0,-24.96854 -18.64739,-37.76887 -48.98891,-37.76887zM341.93658,215.42063h-6.32115v-26.70686h5.05692c9.63975,0 12.48427,5.21495 12.48427,12.6423c0,9.00764 -3.63466,14.06456 -11.22004,14.06456z" data-paper-data="{&quot;glyphName&quot;:&quot;P&quot;,&quot;glyphIndex&quot;:1,&quot;lastGlyphOfWord&quot;:true,&quot;word&quot;:1}" fill="#ffffff"></path></g><path d="M188.57775,150.14662c11.07047,-11.07047 23.78461,-19.64204 38.14243,-25.71472c14.86734,-6.28793 30.43766,-9.4319 46.71094,-9.4319c16.27329,0 31.8436,3.14397 46.71094,9.4319c14.35782,6.07268 27.07197,14.64426 38.14243,25.71472c0.6261,0.6261 1.2442,1.25745 1.85431,1.89406l-0.2656,-0.05151l-2.30139,-0.40513l-0.41751,-0.0664l-2.31377,-0.33198l-0.39163,-0.04952l-2.32277,-0.26221l-0.36575,-0.03601l-2.32952,-0.19807l-0.34436,-0.02476l-2.3329,-0.13617l-0.32298,-0.01463l-2.33627,-0.0799l-0.30385,-0.00675l-1.73021,-0.01882c-7.94285,-6.46659 -16.68349,-11.71698 -26.22191,-15.75118c-13.49137,-5.70689 -27.62712,-8.56034 -42.40727,-8.56034c-14.78015,0 -28.91591,2.85345 -42.40727,8.56034c-9.53439,4.0325 -18.27167,9.28016 -26.21184,15.74299l-16.43779,0c0.06775,-0.06806 0.13559,-0.13607 0.20353,-0.20401zM393.43112,235c0,16.27329 -3.14397,31.8436 -9.4319,46.71094c-6.07268,14.35782 -14.64426,27.07197 -25.71472,38.14243c-11.07115,11.07047 -23.78529,19.64204 -38.14243,25.71472c-14.86734,6.28793 -30.43766,9.4319 -46.71094,9.4319c-16.27329,0 -31.8436,-3.14397 -46.71094,-9.4319c-14.35714,-6.07268 -27.07129,-14.64426 -38.14243,-25.71472c-0.13527,-0.13528 -0.27017,-0.2708 -0.40469,-0.40657l16.39083,0c8.00617,6.55582 16.82616,11.87101 26.45996,15.94555c13.49137,5.70689 27.62712,8.56034 42.40727,8.56034c14.78015,0 28.91591,-2.85345 42.40727,-8.56034c13.0343,-5.51276 24.57886,-13.29655 34.6337,-23.35138c10.05483,-10.05483 17.83863,-21.5994 23.35138,-34.6337c4.49602,-10.62882 7.22101,-21.65758 8.17496,-33.0863l0.40135,-0.26735l1.90075,-1.35832l0.70111,-0.5368l1.80622,-1.48212l0.68423,-0.60095l1.70044,-1.60253l0.65497,-0.66172l1.5834,-1.71844l0.61445,-0.71461l1.37855,-1.72771c0.00482,0.44932 0.00723,0.89918 0.00723,1.34958z" data-paper-data="{&quot;isLogoContainer&quot;:true}"></path></g></g></svg>